<svg width="29" height="29" viewBox="0 0 29 29" fill="none" xmlns="http://www.w3.org/2000/svg">
<path fill-rule="evenodd" clip-rule="evenodd" d="M24.3231 5.49189C22.7742 3.91241 21.05 3.42378 19.4308 3.54232C17.8554 3.65765 16.4366 4.34105 15.4004 4.99839C14.5832 5.51676 13.42 5.51676 12.6028 4.99839C11.5666 4.34106 10.1478 3.65767 8.57236 3.54234C6.95315 3.4238 5.22895 3.91243 3.68013 5.49189C1.85164 7.35656 1.27797 9.65842 1.50833 11.9868C1.73604 14.2884 2.74559 16.628 4.09205 18.7012C5.44211 20.7799 7.16667 22.6462 8.8968 24.0013C10.5889 25.3266 12.4299 26.2754 14.0016 26.2754C15.5733 26.2754 17.4144 25.3266 19.1064 24.0013C20.8366 22.6462 22.5611 20.7799 23.9112 18.7012C25.2576 16.628 26.2672 14.2884 26.4949 11.9868C26.7252 9.65842 26.1516 7.35656 24.3231 5.49189ZM16.3378 6.47615C17.2541 5.89486 18.3883 5.37332 19.5586 5.28765C20.685 5.20519 21.8992 5.51949 23.0736 6.71714C24.4773 8.14869 24.9421 9.90691 24.7534 11.8145C24.562 13.749 23.6949 15.8212 22.4435 17.748C21.1957 19.6692 19.6012 21.3908 18.0273 22.6236C16.4154 23.8862 14.9675 24.5254 14.0016 24.5254C13.0357 24.5254 11.5878 23.8862 9.97589 22.6236C8.402 21.3908 6.80748 19.6692 5.55968 17.748C4.30829 15.8212 3.44122 13.749 3.24983 11.8145C3.0611 9.90691 3.52586 8.14869 4.92963 6.71715C6.10403 5.51951 7.31814 5.20521 8.44459 5.28767C9.61483 5.37334 10.749 5.89487 11.6654 6.47615C13.0548 7.35751 14.9483 7.35751 16.3378 6.47615Z" fill="#808080"/>
</svg>
