<svg width="29" height="30" viewBox="0 0 29 30" fill="none" xmlns="http://www.w3.org/2000/svg">
<path d="M6.78621 12.4281C7.89913 9.05576 11.0683 6.63376 14.8221 6.63376C16.84 6.63376 18.6626 7.34978 20.0947 8.52146L24.2606 4.35551C21.722 2.14234 18.4673 0.775391 14.8221 0.775391C9.17757 0.775391 4.31778 3.99546 1.98145 8.71134L6.78621 12.4281Z" fill="#EA4335"/>
<path d="M19.6443 22.2706C18.3438 23.1104 16.6911 23.5574 14.8222 23.5574C11.0828 23.5574 7.92348 21.1539 6.79916 17.8018L1.97852 21.462C4.31195 26.1861 9.17161 29.4158 14.8222 29.4158C18.3222 29.4158 21.6666 28.1716 24.1713 25.8352L19.6443 22.2706Z" fill="#34A853"/>
<path d="M24.1711 25.8358C26.7905 23.3923 28.4916 19.7544 28.4916 15.0959C28.4916 14.2497 28.3614 13.3384 28.1661 12.4922H14.822V18.0251H22.503C22.124 19.8857 21.1067 21.3268 19.6441 22.2712L24.1711 25.8358Z" fill="#4A90E2"/>
<path d="M6.79911 17.8028C6.51431 16.9537 6.36008 16.0437 6.36008 15.0964C6.36008 14.1635 6.50966 13.2668 6.78624 12.4287L1.98148 8.71191C1.02272 10.6337 0.501709 12.7996 0.501709 15.0964C0.501709 17.3872 1.0325 19.5479 1.97846 21.463L6.79911 17.8028Z" fill="#FBBC05"/>
</svg>
