<svg width="71" height="72" viewBox="0 0 71 72" fill="none" xmlns="http://www.w3.org/2000/svg">
<path d="M35.2429 0.0654297C15.7801 0.0654297 0.00170898 15.9596 0.00170898 35.5656C0.00170898 55.1725 15.7801 71.0654 35.2429 71.0654C54.7077 71.0654 70.4844 55.1725 70.4844 35.5656C70.4844 15.9609 54.7077 0.0671254 35.2424 0.0671254L35.2429 0.0654297ZM51.4042 51.2669C50.773 52.3098 49.4179 52.6404 48.3827 52.0003C40.1084 46.909 29.6922 45.7559 17.4251 48.5793C16.243 48.8506 15.0647 48.1045 14.7954 46.9132C14.5248 45.722 15.2625 44.535 16.4475 44.2637C29.8719 41.1742 41.3869 42.5044 50.6762 48.2232C51.7114 48.8633 52.0397 50.2241 51.4042 51.2669ZM55.7177 41.6006C54.9223 42.9029 53.2306 43.3141 51.9387 42.5129C42.4659 36.6475 28.0261 34.9488 16.8217 38.375C15.3686 38.8171 13.8338 37.9922 13.3928 36.5309C12.9551 35.0671 13.7745 33.524 15.2251 33.0789C28.0236 29.1669 43.9346 31.0619 54.8129 37.7959C56.1048 38.5971 56.513 40.3009 55.7177 41.6006ZM56.088 31.535C44.7299 24.7391 25.9906 24.1142 15.1464 27.4297C13.405 27.9617 11.5635 26.9714 11.0357 25.2172C10.508 23.4622 11.4902 21.6084 13.2329 21.0751C25.6813 17.2683 46.3754 18.0038 59.4521 25.8239C61.0217 26.7603 61.5351 28.7981 60.6051 30.3738C59.6793 31.9517 57.6509 32.4718 56.0897 31.535H56.088Z" fill="#62CD5D"/>
</svg>
