<svg width="29" height="29" viewBox="0 0 29 29" fill="none" xmlns="http://www.w3.org/2000/svg">
<g clip-path="url(#clip0_313_776)">
<path d="M11.6684 20.8147C11.1851 20.8147 10.7934 21.2064 10.7934 21.6897C10.7934 22.1729 11.1851 22.5647 11.6684 22.5647H16.335C16.8183 22.5647 17.21 22.1729 17.21 21.6897C17.21 21.2064 16.8183 20.8147 16.335 20.8147H11.6684Z" fill="#808080"/>
<path fill-rule="evenodd" clip-rule="evenodd" d="M14.2476 2.36291C14.0837 2.3569 13.9197 2.3569 13.7558 2.36291C12.6738 2.4026 11.6996 2.77051 10.6314 3.38294C9.59041 3.97976 8.39196 4.85049 6.87135 5.95529L6.78869 6.01534C5.26806 7.12013 4.06959 7.99086 3.1803 8.79647C2.26775 9.62315 1.61679 10.436 1.2447 11.4527C1.18834 11.6068 1.13764 11.7628 1.09271 11.9205C0.796119 12.9618 0.844959 14.002 1.09732 15.2072C1.34325 16.3817 1.80103 17.7905 2.38186 19.5781L2.41344 19.6753C2.99425 21.4629 3.45202 22.8718 3.94338 23.9665C4.4476 25.0898 5.01954 25.9601 5.87152 26.6282C6.00058 26.7294 6.13331 26.8258 6.26944 26.9173C7.16808 27.5211 8.17251 27.7961 9.39669 27.9286C10.5897 28.0576 12.071 28.0576 13.9506 28.0576H14.0528C15.9324 28.0576 17.4138 28.0576 18.6067 27.9286C19.8309 27.7961 20.8354 27.5211 21.734 26.9173C21.8701 26.8258 22.0029 26.7294 22.1319 26.6282C22.9839 25.9601 23.5558 25.0898 24.0601 23.9665C24.5514 22.8718 25.0092 21.4629 25.59 19.6753L25.6216 19.5781C26.2024 17.7906 26.6602 16.3816 26.9061 15.2072C27.1585 14.002 27.2073 12.9618 26.9107 11.9205C26.8658 11.7628 26.8151 11.6068 26.7587 11.4527C26.3866 10.436 25.7357 9.62314 24.8231 8.79647C23.9338 7.99086 22.7354 7.12013 21.2147 6.01534L21.1321 5.95527C19.6115 4.85048 18.413 3.97975 17.372 3.38294C16.3038 2.77051 15.3296 2.4026 14.2476 2.36291ZM13.8199 4.11173C13.9411 4.10729 14.0623 4.10729 14.1835 4.11173C14.8782 4.13722 15.57 4.36702 16.5016 4.90112C17.451 5.44543 18.5738 6.25969 20.1448 7.40111C21.7158 8.54252 22.8372 9.3587 23.6482 10.0934C24.4441 10.8144 24.8764 11.4014 25.1153 12.0542C25.157 12.168 25.1945 12.2833 25.2277 12.3999C25.4181 13.0685 25.4133 13.7975 25.1933 14.8485C24.969 15.9197 24.5415 17.2391 23.9414 19.0859C23.3414 20.9328 22.9116 22.2515 22.4635 23.2499C22.0238 24.2295 21.5991 24.8221 21.0521 25.2511C20.9567 25.3259 20.8586 25.3972 20.758 25.4648C20.181 25.8525 19.4862 26.0732 18.4186 26.1887C17.3305 26.3064 15.9436 26.3076 14.0017 26.3076C12.0598 26.3076 10.6729 26.3064 9.58488 26.1887C8.51727 26.0732 7.82245 25.8525 7.24547 25.4648C7.14485 25.3972 7.04675 25.3259 6.95135 25.2511C6.40433 24.8221 5.97966 24.2295 5.53993 23.2499C5.09179 22.2515 4.66208 20.9328 4.062 19.0859C3.46192 17.2391 3.03446 15.9197 2.81017 14.8485C2.59009 13.7975 2.58533 13.0685 2.77576 12.3999C2.80897 12.2833 2.84644 12.168 2.88811 12.0542C3.12701 11.4014 3.55937 10.8144 4.3552 10.0934C5.16626 9.3587 6.28761 8.54252 7.85863 7.40111C9.42966 6.25969 10.5524 5.44543 11.5018 4.90112C12.4334 4.36702 13.1253 4.13722 13.8199 4.11173Z" fill="#808080"/>
</g>
<defs>
<clipPath id="clip0_313_776">
<rect width="28" height="28" fill="white" transform="translate(0.00170898 0.900391)"/>
</clipPath>
</defs>
</svg>
