<svg width="26" height="26" viewBox="0 0 26 26" fill="none" xmlns="http://www.w3.org/2000/svg">
<g clip-path="url(#clip0_313_614)">
<path fill-rule="evenodd" clip-rule="evenodd" d="M11.4601 0.586914C5.85094 0.586914 1.30383 5.13402 1.30383 10.7432C1.30383 16.3523 5.85094 20.8994 11.4601 20.8994C17.0692 20.8994 21.6163 16.3523 21.6163 10.7432C21.6163 5.13402 17.0692 0.586914 11.4601 0.586914ZM2.86633 10.7432C2.86633 5.99697 6.71389 2.14941 11.4601 2.14941C16.2063 2.14941 20.0538 5.99697 20.0538 10.7432C20.0538 15.4894 16.2063 19.3369 11.4601 19.3369C6.71389 19.3369 2.86633 15.4894 2.86633 10.7432Z" fill="#2D264B"/>
<path d="M20.3459 18.5242C20.0408 18.2191 19.5462 18.2191 19.2411 18.5242C18.936 18.8293 18.936 19.3239 19.2411 19.629L23.4076 23.7956C23.7127 24.1007 24.2074 24.1007 24.5125 23.7956C24.8176 23.4905 24.8176 22.9959 24.5125 22.6908L20.3459 18.5242Z" fill="#2D264B"/>
</g>
<defs>
<clipPath id="clip0_313_614">
<rect width="25" height="25" fill="white" transform="translate(0.00170898 0.326172)"/>
</clipPath>
</defs>
</svg>
