<svg width="29" height="29" viewBox="0 0 29 29" fill="none" xmlns="http://www.w3.org/2000/svg">
<path fill-rule="evenodd" clip-rule="evenodd" d="M7.34432 6.69322C4.23303 8.9537 2.67739 10.0839 2.0664 11.7535C2.01739 11.8874 1.9733 12.0231 1.93424 12.1602C1.44722 13.87 2.04142 15.6988 3.22982 19.3563C4.41823 23.0139 5.01243 24.8426 6.41144 25.9396C6.52366 26.0276 6.63908 26.1115 6.75745 26.191C8.23308 27.1826 10.156 27.1826 14.0017 27.1826C17.8475 27.1826 19.7704 27.1826 21.246 26.191C21.3644 26.1115 21.4798 26.0276 21.592 25.9396C22.991 24.8426 23.5852 23.0139 24.7736 19.3563C25.962 15.6988 26.5562 13.87 26.0692 12.1602C26.0301 12.0231 25.986 11.8874 25.937 11.7535C25.326 10.0839 23.7704 8.9537 20.6591 6.69323C17.5478 4.43275 15.9922 3.30249 14.2156 3.23732C14.073 3.23209 13.9304 3.23209 13.7879 3.23732C12.0112 3.30249 10.4556 4.43274 7.34432 6.69322ZM11.6684 20.8147C11.1851 20.8147 10.7934 21.2064 10.7934 21.6897C10.7934 22.1729 11.1851 22.5647 11.6684 22.5647H16.335C16.8183 22.5647 17.21 22.1729 17.21 21.6897C17.21 21.2064 16.8183 20.8147 16.335 20.8147H11.6684Z" fill="#42C83C"/>
</svg>
