<svg width="27" height="27" viewBox="0 0 27 27" fill="none" xmlns="http://www.w3.org/2000/svg">
<path d="M21.3975 7.40039C21.3975 6.95166 21.0338 6.58789 20.585 6.58789C20.1363 6.58789 19.7725 6.95166 19.7725 7.40039V20.4004C19.7725 20.8491 20.1363 21.2129 20.585 21.2129C21.0338 21.2129 21.3975 20.8491 21.3975 20.4004V7.40039Z" fill="#363636"/>
<path d="M14.4023 8.75654C13.199 8.04964 12.2462 7.48993 11.4679 7.12472C10.6859 6.75775 9.95669 6.52468 9.22348 6.60309C8.10585 6.72261 7.09491 7.31863 6.43939 8.23667C6.01123 8.8363 5.84586 9.58737 5.76736 10.458C5.6892 11.3249 5.6892 12.443 5.68921 13.8582V13.9426C5.6892 15.3578 5.6892 16.4759 5.76736 17.3428C5.84585 18.2134 6.01123 18.9645 6.43939 19.5641C7.09491 20.4821 8.10585 21.0782 9.22348 21.1977C9.95668 21.2761 10.6859 21.043 11.4679 20.6761C12.2462 20.3109 13.1989 19.7512 14.4022 19.0443L14.4766 19.0006C15.6802 18.2935 16.6329 17.7339 17.3327 17.2308C18.0372 16.7244 18.5953 16.2011 18.8916 15.5239C19.344 14.4902 19.344 13.3106 18.8916 12.2768C18.5953 11.5997 18.0372 11.0764 17.3327 10.57C16.6329 10.0669 15.6802 9.50725 14.4767 8.80024L14.4023 8.75654Z" fill="#363636"/>
</svg>
