<svg width="32" height="32" viewBox="0 0 32 32" fill="none" xmlns="http://www.w3.org/2000/svg">
<path d="M21.272 19.0918C21.6487 19.4718 22.262 19.4745 22.642 19.0979C23.022 18.7213 23.0248 18.1079 22.6481 17.7279L20.3505 15.4097C19.4852 14.5366 18.7779 13.8229 18.1478 13.3169C17.4925 12.7906 16.8274 12.4096 16.029 12.3079C15.6789 12.2633 15.3246 12.2633 14.9745 12.3079C14.1761 12.4096 13.511 12.7906 12.8557 13.3169C12.2256 13.8229 11.5183 14.5365 10.653 15.4097L8.35536 17.7279C7.97873 18.1079 7.98146 18.7213 8.36147 19.0979C8.74147 19.4745 9.35485 19.4718 9.73147 19.0918L11.9884 16.8146C12.9044 15.8904 13.5348 15.2565 14.0689 14.8275C14.5878 14.4108 14.921 14.2679 15.2195 14.2298C15.4069 14.2059 15.5966 14.2059 15.784 14.2298C16.0825 14.2679 16.4157 14.4108 16.9346 14.8275C17.4687 15.2565 18.0991 15.8904 19.0151 16.8146L21.272 19.0918Z" fill="#414141"/>
</svg>
