<svg width="29" height="29" viewBox="0 0 29 29" fill="none" xmlns="http://www.w3.org/2000/svg">
<path d="M11.3767 4.40039C11.3767 3.91714 10.985 3.52539 10.5017 3.52539C10.0185 3.52539 9.62671 3.91714 9.62671 4.40039V25.4004C9.62671 25.8836 10.0185 26.2754 10.5017 26.2754C10.985 26.2754 11.3767 25.8836 11.3767 25.4004L11.3767 4.40039Z" fill="#373737"/>
<path d="M18.3767 4.40039C18.3767 3.91714 17.985 3.52539 17.5017 3.52539C17.0185 3.52539 16.6267 3.91714 16.6267 4.40039L16.6267 25.4004C16.6267 25.8836 17.0185 26.2754 17.5017 26.2754C17.985 26.2754 18.3767 25.8836 18.3767 25.4004V4.40039Z" fill="#373737"/>
</svg>
