<svg width="27" height="27" viewBox="0 0 27 27" fill="none" xmlns="http://www.w3.org/2000/svg">
<path d="M6.23083 7.40039C6.23083 6.95166 5.86707 6.58789 5.41833 6.58789C4.9696 6.58789 4.60583 6.95166 4.60583 7.40039V20.4004C4.60583 20.8491 4.9696 21.2129 5.41833 21.2129C5.86707 21.2129 6.23084 20.8491 6.23084 20.4004L6.23083 7.40039Z" fill="#363636"/>
<path d="M16.7799 6.60309C16.0467 6.52468 15.3175 6.75775 14.5355 7.12471C13.7572 7.48993 12.8044 8.04962 11.6011 8.75652L11.5267 8.80023C10.3232 9.50724 9.37051 10.0669 8.67069 10.57C7.96623 11.0764 7.40805 11.5997 7.11176 12.2768C6.65942 13.3106 6.65942 14.4902 7.11176 15.5239C7.40805 16.2011 7.96622 16.7244 8.67069 17.2308C9.3705 17.7339 10.3232 18.2935 11.5267 19.0005L11.6012 19.0443C12.8045 19.7512 13.7572 20.3109 14.5355 20.6761C15.3175 21.043 16.0467 21.2761 16.7799 21.1977C17.8975 21.0782 18.9085 20.4822 19.564 19.5641C19.9921 18.9645 20.1575 18.2134 20.236 17.3428C20.3142 16.4759 20.3142 15.3578 20.3142 13.9426V13.8582C20.3142 12.443 20.3142 11.3248 20.236 10.458C20.1575 9.58737 19.9921 8.8363 19.564 8.23667C18.9085 7.31863 17.8975 6.72261 16.7799 6.60309Z" fill="#363636"/>
</svg>
