<svg width="25" height="25" viewBox="0 0 25 25" fill="none" xmlns="http://www.w3.org/2000/svg">
<path d="M18.782 4.37006C18.4891 4.07717 18.0143 4.07717 17.7214 4.37006C17.4285 4.66295 17.4285 5.13783 17.7214 5.43072L18.4457 6.15506C16.6115 6.22892 14.9168 7.17572 13.8933 8.71086L8.862 16.2579C8.07377 17.4402 6.74679 18.1504 5.32579 18.1504H5.00171C4.5875 18.1504 4.25171 18.4862 4.25171 18.9004C4.25171 19.3146 4.5875 19.6504 5.00171 19.6504H5.32579C7.24832 19.6504 9.04365 18.6896 10.1101 17.0899L15.1414 9.54291C15.8291 8.51145 16.9267 7.83934 18.1391 7.68459L17.5216 8.19922C17.2034 8.4644 17.1604 8.93732 17.4255 9.25553C17.6907 9.57374 18.1636 9.61673 18.4818 9.35156L19.8906 8.17758C20.2749 7.85736 20.4856 7.40819 20.5164 6.95066C20.5488 6.46809 20.3813 5.96933 20.0077 5.59576L18.782 4.37006Z" fill="#7E7E7E"/>
<path d="M5.00171 6.15039C4.5875 6.15039 4.25171 6.48618 4.25171 6.90039C4.25171 7.3146 4.5875 7.65039 5.00171 7.65039H5.32579C6.74679 7.65039 8.07377 8.36057 8.862 9.54291C9.09177 9.88756 9.55742 9.98069 9.90207 9.75093C10.2467 9.52116 10.3398 9.05551 10.1101 8.71086C9.04365 7.11122 7.24832 6.15039 5.32579 6.15039H5.00171Z" fill="#7E7E7E"/>
<path d="M15.1414 16.2579C14.9116 15.9132 14.446 15.8201 14.1014 16.0499C13.7567 16.2796 13.6636 16.7453 13.8933 17.0899C14.8716 18.5573 16.4631 19.4871 18.2036 19.6309L17.5216 20.1992C17.2034 20.4644 17.1604 20.9373 17.4255 21.2555C17.6907 21.5737 18.1636 21.6167 18.4818 21.3516L19.8906 20.1776C20.2749 19.8574 20.4856 19.4082 20.5164 18.9507C20.5488 18.4681 20.3813 17.9693 20.0077 17.5958L18.782 16.3701C18.4891 16.0772 18.0143 16.0772 17.7214 16.3701C17.4285 16.663 17.4285 17.1378 17.7214 17.4307L18.4341 18.1434C17.1061 18.0674 15.8844 17.3724 15.1414 16.2579Z" fill="#7E7E7E"/>
</svg>
