<svg width="25" height="25" viewBox="0 0 25 25" fill="none" xmlns="http://www.w3.org/2000/svg">
<path d="M15.7821 3.37006C15.4892 3.07717 15.0143 3.07717 14.7214 3.37006C14.4285 3.66295 14.4285 4.13783 14.7214 4.43072L15.4411 5.15039L10.8399 5.15037C9.13363 5.15011 8.09241 5.14994 7.22489 5.43182C5.47438 6.00059 4.10194 7.37302 3.53317 9.12354C3.25129 9.99106 3.25146 11.0323 3.25173 12.7386V13.0622C3.25146 14.7685 3.25129 15.8097 3.53317 16.6772C3.66117 17.0712 4.08428 17.2868 4.47822 17.1588C4.87216 17.0308 5.08775 16.6077 4.95975 16.2137C4.761 15.602 4.75174 14.82 4.75174 12.9004C4.75174 10.9807 4.761 10.1988 4.95975 9.58707C5.38015 8.29321 6.39456 7.2788 7.68842 6.8584C8.30013 6.65964 9.08209 6.65039 11.0017 6.65039H15.1802L14.5216 7.19922C14.2034 7.4644 14.1604 7.93732 14.4256 8.25553C14.6907 8.57374 15.1637 8.61673 15.4819 8.35156L16.8907 7.17758C17.2749 6.85736 17.4856 6.40819 17.5164 5.95066C17.5488 5.46809 17.3813 4.96933 17.0078 4.59576L15.7821 3.37006Z" fill="#7E7E7E"/>
<path d="M20.4703 9.12354C20.3423 8.7296 19.9192 8.51401 19.5253 8.64201C19.1313 8.77001 18.9157 9.19313 19.0437 9.58707C19.2425 10.1988 19.2517 10.9807 19.2517 12.9004C19.2517 14.82 19.2425 15.602 19.0437 16.2137C18.6233 17.5076 17.6089 18.522 16.3151 18.9424C15.7034 19.1411 14.9214 19.1504 13.0017 19.1504H11.0017C10.0345 19.1504 9.35615 19.1481 8.84248 19.1203L9.53207 18.4307C9.82497 18.1378 9.82497 17.663 9.53207 17.3701C9.23918 17.0772 8.76431 17.0772 8.47141 17.3701L7.24572 18.5958C6.97746 18.864 6.81433 19.1986 6.75677 19.5457C6.65948 20.1325 6.86407 20.7619 7.36283 21.1776L8.7716 22.3516C9.08981 22.6167 9.56273 22.5737 9.82791 22.2555C10.0931 21.9373 10.0501 21.4644 9.73188 21.1992L9.05061 20.6315C9.5599 20.6506 10.1472 20.6505 10.846 20.6504H13.1636C14.8699 20.6507 15.9111 20.6508 16.7786 20.369C18.5291 19.8002 19.9015 18.4278 20.4703 16.6772C20.7522 15.8097 20.752 14.7685 20.7518 13.0622V12.7386C20.752 11.0323 20.7522 9.99106 20.4703 9.12354Z" fill="#7E7E7E"/>
</svg>
