<svg width="197" height="60" viewBox="0 0 197 60" fill="none" xmlns="http://www.w3.org/2000/svg">
<path d="M29.3943 0.414062C13.1616 0.414062 0.00170898 13.6219 0.00170898 29.9142C0.00170898 46.2073 13.1616 59.4141 29.3943 59.4141C45.6288 59.4141 58.7873 46.2073 58.7873 29.9142C58.7873 13.6229 45.6288 0.415472 29.394 0.415472L29.3943 0.414062ZM42.8736 42.9618C42.3471 43.8284 41.2169 44.1032 40.3535 43.5712C33.4524 39.3404 24.7648 38.3822 14.5336 40.7284C13.5477 40.9538 12.5649 40.3338 12.3403 39.3439C12.1146 38.354 12.7299 37.3677 13.7182 37.1422C24.9147 34.5748 34.5187 35.6803 42.2664 40.4325C43.1298 40.9644 43.4036 42.0952 42.8736 42.9618ZM46.4712 34.9292C45.8078 36.0114 44.3969 36.3531 43.3193 35.6873C35.4186 30.8132 23.3753 29.4017 14.0303 32.2488C12.8183 32.6162 11.5383 31.9307 11.1704 30.7164C10.8054 29.5 11.4888 28.2177 12.6986 27.8478C23.3732 24.597 36.6436 26.1717 45.7166 31.7676C46.7941 32.4334 47.1345 33.8491 46.4712 34.9292ZM46.7801 26.5648C37.3069 20.9175 21.6775 20.3982 12.633 23.1534C11.1806 23.5955 9.6447 22.7726 9.20456 21.3149C8.76442 19.8564 9.58362 18.316 11.0371 17.8728C21.4196 14.7094 38.6793 15.3206 49.5858 21.819C50.895 22.5971 51.3232 24.2905 50.5475 25.5999C49.7754 26.9111 48.0836 27.3433 46.7815 26.5648H46.7801ZM79.9693 27.647C74.894 26.4324 73.992 25.5799 73.992 23.7885C73.992 22.0962 75.5784 20.9573 77.9406 20.9573C80.229 20.9573 82.4964 21.8221 84.8761 23.6025C84.9463 23.6564 85.0375 23.6779 85.1253 23.6638C85.2165 23.6504 85.2937 23.6015 85.3464 23.5279L87.8243 20.022C87.9261 19.8776 87.898 19.6786 87.7612 19.5683C84.9287 17.288 81.7418 16.1794 78.0143 16.1794C72.5354 16.1794 68.7061 19.4799 68.7061 24.2021C68.7061 29.2661 72.0089 31.0591 77.716 32.4432C82.5701 33.5659 83.3914 34.5065 83.3914 36.1875C83.3914 38.0511 81.7347 39.2101 79.0672 39.2101C76.1049 39.2101 73.6866 38.2061 70.984 35.8599C70.9174 35.8 70.8261 35.7754 70.7419 35.7789C70.6506 35.7859 70.5699 35.8282 70.5137 35.8952L67.7339 39.2136C67.6181 39.3545 67.6321 39.5588 67.7655 39.6786C70.9103 42.4968 74.7782 43.9834 78.9549 43.9834C84.8585 43.9834 88.6737 40.746 88.6737 35.7331C88.6843 31.5034 86.1607 29.1607 79.9798 27.6516L79.9693 27.647ZM102.032 22.6236C99.4736 22.6236 97.3747 23.6353 95.6408 25.7084V23.375C95.6408 23.1907 95.4934 23.0407 95.3109 23.0407H90.7656C90.5831 23.0407 90.4357 23.1907 90.4357 23.375V49.3027C90.4357 49.4859 90.5831 49.6374 90.7656 49.6374H95.3109C95.4934 49.6374 95.6408 49.4859 95.6408 49.3027V41.1194C97.3747 43.0675 99.4736 44.0221 102.032 44.0221C106.788 44.0221 111.604 40.3479 111.604 33.3239C111.611 26.2985 106.795 22.6232 102.036 22.6232L102.032 22.6236ZM106.318 33.3239C106.318 36.8991 104.124 39.3968 100.979 39.3968C97.8731 39.3968 95.5285 36.7864 95.5285 33.3239C95.5285 29.861 97.8731 27.2514 100.979 27.2514C104.071 27.251 106.318 29.8047 106.318 33.3239ZM123.941 22.6236C117.816 22.6236 113.018 27.3567 113.018 33.4003C113.018 39.3792 117.785 44.0609 123.867 44.0609C130.013 44.0609 134.825 39.3439 134.825 33.3239C134.825 27.3243 130.044 22.6243 123.941 22.6243V22.6236ZM123.941 39.432C120.684 39.432 118.227 36.804 118.227 33.3221C118.227 29.8244 120.599 27.2863 123.867 27.2863C127.145 27.2863 129.616 29.9132 129.616 33.3986C129.616 36.8956 127.23 39.432 123.941 39.432ZM147.903 23.0407H142.901V17.9094C142.901 17.7255 142.754 17.5755 142.571 17.5755H138.026C137.843 17.5755 137.692 17.7255 137.692 17.9094V23.0407H135.509C135.327 23.0407 135.179 23.1907 135.179 23.375V27.2947C135.179 27.4786 135.327 27.629 135.509 27.629H137.692V37.7728C137.692 41.8697 139.725 43.9482 143.736 43.9482C145.365 43.9482 146.716 43.61 147.99 42.8843C148.096 42.8279 148.159 42.7152 148.159 42.5954V38.8613C148.159 38.7486 148.099 38.6394 148.001 38.5795C147.903 38.5161 147.78 38.5126 147.678 38.5654C146.804 39.0057 145.958 39.2101 145.01 39.2101C143.554 39.2101 142.901 38.5443 142.901 37.0577V27.6308H147.903C148.085 27.6308 148.233 27.4807 148.233 27.2965V23.3771C148.24 23.1928 148.092 23.0428 147.906 23.0428L147.903 23.0407ZM165.326 23.0607V22.4305C165.326 20.5765 166.035 19.7497 167.621 19.7497C168.569 19.7497 169.33 19.9385 170.183 20.2239C170.288 20.257 170.397 20.2404 170.482 20.1774C170.569 20.1143 170.618 20.0132 170.618 19.9061V16.0628C170.618 15.9159 170.527 15.7859 170.383 15.7426C169.485 15.4738 168.333 15.198 166.607 15.198C162.412 15.198 160.191 17.5702 160.191 22.0557V23.0209H158.007C157.825 23.0209 157.674 23.171 157.674 23.3549V27.2947C157.674 27.4786 157.825 27.629 158.007 27.629H160.191V43.2718C160.191 43.4585 160.342 43.6064 160.524 43.6064H165.066C165.252 43.6064 165.399 43.4585 165.399 43.2718V27.6301H169.643L176.143 43.2718C175.406 44.9134 174.679 45.241 173.69 45.241C172.889 45.241 172.043 45.0015 171.184 44.5259C171.103 44.4836 171.004 44.4766 170.92 44.5012C170.833 44.5329 170.759 44.5963 170.724 44.6809L169.183 48.0733C169.109 48.2353 169.172 48.422 169.327 48.5066C170.934 49.3802 172.384 49.7536 174.177 49.7536C177.533 49.7536 179.39 48.1825 181.022 43.9622L188.905 23.5173C188.947 23.4144 188.933 23.2982 188.87 23.2069C188.81 23.1164 188.708 23.0618 188.599 23.0618H183.868C183.724 23.0618 183.598 23.1523 183.552 23.2858L178.705 37.1774L173.398 23.2767C173.349 23.1474 173.226 23.0618 173.089 23.0618H165.326V23.0607ZM155.224 23.0407H150.679C150.496 23.0407 150.345 23.1907 150.345 23.375V43.2718C150.345 43.4585 150.496 43.6064 150.679 43.6064H155.224C155.407 43.6064 155.558 43.4585 155.558 43.2718V23.3764C155.558 23.1921 155.41 23.0421 155.224 23.0421V23.0407ZM152.978 13.9805C151.177 13.9805 149.717 15.4432 149.717 17.25C149.717 19.0578 151.177 20.5222 152.978 20.5222C154.778 20.5222 156.235 19.0578 156.235 17.25C156.235 15.4435 154.775 13.9805 152.978 13.9805ZM192.787 29.4383C190.99 29.4383 189.589 27.9887 189.589 26.2284C189.589 24.4681 191.007 23.0019 192.804 23.0019C194.601 23.0019 196.002 24.4512 196.002 26.2101C196.002 27.9704 194.584 29.4383 192.787 29.4383ZM192.804 23.3211C191.165 23.3211 189.926 24.628 189.926 26.2284C189.926 27.8281 191.158 29.1174 192.787 29.1174C194.426 29.1174 195.665 27.8115 195.665 26.2101C195.665 24.6104 194.433 23.3211 192.804 23.3211ZM193.513 26.5402L194.419 27.8112H193.654L192.839 26.6451H192.141V27.8112H191.502V24.442H192.997C193.78 24.442 194.292 24.8425 194.292 25.5168C194.296 26.0692 193.977 26.4066 193.517 26.5402H193.513ZM192.973 25.0201H192.141V26.0857H192.973C193.387 26.0857 193.636 25.8818 193.636 25.5524C193.636 25.2057 193.387 25.0201 192.973 25.0201Z" fill="#62CD5D"/>
</svg>
