<svg width="29" height="29" viewBox="0 0 29 29" fill="none" xmlns="http://www.w3.org/2000/svg">
<path fill-rule="evenodd" clip-rule="evenodd" d="M14.0017 2.3584C10.9412 2.3584 8.46008 4.83949 8.46008 7.90007C8.46008 10.9606 10.9412 13.4417 14.0017 13.4417C17.0623 13.4417 19.5434 10.9606 19.5434 7.90007C19.5434 4.83949 17.0623 2.3584 14.0017 2.3584ZM10.2101 7.90007C10.2101 5.80599 11.9077 4.1084 14.0017 4.1084C16.0958 4.1084 17.7934 5.80599 17.7934 7.90007C17.7934 9.99415 16.0958 11.6917 14.0017 11.6917C11.9077 11.6917 10.2101 9.99415 10.2101 7.90007Z" fill="#808080"/>
<path fill-rule="evenodd" clip-rule="evenodd" d="M10.5017 15.1917C7.44117 15.1917 4.96008 17.6728 4.96008 20.7334C4.96008 23.794 7.44117 26.2751 10.5017 26.2751H17.5017C20.5623 26.2751 23.0434 23.794 23.0434 20.7334C23.0434 17.6728 20.5623 15.1917 17.5017 15.1917H10.5017ZM6.71008 20.7334C6.71008 18.6393 8.40767 16.9417 10.5017 16.9417H17.5017C19.5958 16.9417 21.2934 18.6393 21.2934 20.7334C21.2934 22.8275 19.5958 24.5251 17.5017 24.5251H10.5017C8.40767 24.5251 6.71008 22.8275 6.71008 20.7334Z" fill="#808080"/>
</svg>
